<svg width="40" height="40" viewBox="0 0 40 40" fill="none" xmlns="http://www.w3.org/2000/svg">
<rect width="40" height="40" rx="10" fill="#F05537"/>
<path d="M20 36C28.8366 36 36 28.8366 36 20C36 11.1634 28.8366 4 20 4C11.1634 4 4 11.1634 4 20C4 28.8366 11.1634 36 20 36Z" fill="#F05537"/>
<path d="M18.6847 14.3411C21.0969 13.8051 23.509 14.7878 24.8491 16.6639L14.188 19.076C14.5454 16.783 16.2726 14.8771 18.6847 14.3411ZM24.9086 23.1856C24.0748 24.4066 22.7943 25.2702 21.3351 25.5978C18.923 26.1338 16.4811 25.1511 15.141 23.2452L25.8318 20.833L30.8943 19.7014C30.8645 18.9867 30.7752 18.272 30.6263 17.5871C29.2862 11.8396 23.4197 8.23631 17.5531 9.57639C11.6866 10.9165 8.02369 16.6341 9.39354 22.4113C10.7634 28.1886 16.6002 31.7621 22.4667 30.422C25.9212 29.6478 28.6013 27.325 29.9712 24.3768L24.9086 23.1856Z" fill="#FAF0E6"/>
</svg>
