<svg width="40" height="40" viewBox="0 0 40 40" fill="none" xmlns="http://www.w3.org/2000/svg">
<path d="M31.4286 0H8.57143C3.83756 0 0 3.83756 0 8.57143V31.4286C0 36.1624 3.83756 40 8.57143 40H31.4286C36.1624 40 40 36.1624 40 31.4286V8.57143C40 3.83756 36.1624 0 31.4286 0Z" fill="url(#paint0_radial_59_10)"/>
<path d="M31.4286 0H8.57143C3.83756 0 0 3.83756 0 8.57143V31.4286C0 36.1624 3.83756 40 8.57143 40H31.4286C36.1624 40 40 36.1624 40 31.4286V8.57143C40 3.83756 36.1624 0 31.4286 0Z" fill="url(#paint1_radial_59_10)"/>
<path d="M31.4286 0H8.57143C3.83756 0 0 3.83756 0 8.57143V31.4286C0 36.1624 3.83756 40 8.57143 40H31.4286C36.1624 40 40 36.1624 40 31.4286V8.57143C40 3.83756 36.1624 0 31.4286 0Z" fill="url(#paint2_radial_59_10)"/>
<path d="M29.9998 12.1428C29.9998 13.3262 29.0404 14.2857 27.8569 14.2857C26.6735 14.2857 25.7141 13.3262 25.7141 12.1428C25.7141 10.9593 26.6735 9.99995 27.8569 9.99995C29.0404 9.99995 29.9998 10.9593 29.9998 12.1428Z" fill="#FAF0E6"/>
<path fill-rule="evenodd" clip-rule="evenodd" d="M19.9998 27.1428C23.9447 27.1428 27.1427 23.9448 27.1427 20C27.1427 16.0551 23.9447 12.8571 19.9998 12.8571C16.0549 12.8571 12.8569 16.0551 12.8569 20C12.8569 23.9448 16.0549 27.1428 19.9998 27.1428ZM19.9998 24.2857C22.3668 24.2857 24.2855 22.367 24.2855 20C24.2855 17.633 22.3668 15.7142 19.9998 15.7142C17.6328 15.7142 15.7141 17.633 15.7141 20C15.7141 22.367 17.6328 24.2857 19.9998 24.2857Z" fill="#FAF0E6"/>
<path fill-rule="evenodd" clip-rule="evenodd" d="M5.71429 19.4286C5.71429 14.6281 5.71429 12.2279 6.64852 10.3944C7.47029 8.78154 8.78154 7.47029 10.3944 6.64852C12.2279 5.71429 14.6281 5.71429 19.4286 5.71429H20.5714C25.3719 5.71429 27.7721 5.71429 29.6056 6.64852C31.2184 7.47029 32.5297 8.78154 33.3514 10.3944C34.2857 12.2279 34.2857 14.6281 34.2857 19.4286V20.5714C34.2857 25.3719 34.2857 27.7721 33.3514 29.6056C32.5297 31.2184 31.2184 32.5297 29.6056 33.3514C27.7721 34.2857 25.3719 34.2857 20.5714 34.2857H19.4286C14.6281 34.2857 12.2279 34.2857 10.3944 33.3514C8.78154 32.5297 7.47029 31.2184 6.64852 29.6056C5.71429 27.7721 5.71429 25.3719 5.71429 20.5714V19.4286ZM19.4286 8.57143H20.5714C23.0189 8.57143 24.6824 8.57366 25.9684 8.67871C27.2211 8.78106 27.8617 8.96656 28.3086 9.19424C29.3837 9.7421 30.2579 10.6163 30.8057 11.6914C31.0334 12.1383 31.219 12.7789 31.3213 14.0316C31.4263 15.3176 31.4286 16.9811 31.4286 19.4286V20.5714C31.4286 23.0189 31.4263 24.6824 31.3213 25.9684C31.219 27.2211 31.0334 27.8617 30.8057 28.3086C30.2579 29.3837 29.3837 30.2579 28.3086 30.8057C27.8617 31.0334 27.2211 31.219 25.9684 31.3213C24.6824 31.4263 23.0189 31.4286 20.5714 31.4286H19.4286C16.9811 31.4286 15.3176 31.4263 14.0316 31.3213C12.7789 31.219 12.1383 31.0334 11.6914 30.8057C10.6163 30.2579 9.7421 29.3837 9.19424 28.3086C8.96656 27.8617 8.78106 27.2211 8.67871 25.9684C8.57366 24.6824 8.57143 23.0189 8.57143 20.5714V19.4286C8.57143 16.9811 8.57366 15.3176 8.67871 14.0316C8.78106 12.7789 8.96656 12.1383 9.19424 11.6914C9.7421 10.6163 10.6163 9.7421 11.6914 9.19424C12.1383 8.96656 12.7789 8.78106 14.0316 8.67871C15.3176 8.57366 16.9811 8.57143 19.4286 8.57143Z" fill="#FAF0E6"/>
<defs>
<radialGradient id="paint0_radial_59_10" cx="0" cy="0" r="1" gradientUnits="userSpaceOnUse" gradientTransform="translate(14.2857 30) rotate(-55.3758) scale(36.4566)">
<stop stop-color="#B13589"/>
<stop offset="0.79309" stop-color="#C62F94"/>
<stop offset="1" stop-color="#8A3AC8"/>
</radialGradient>
<radialGradient id="paint1_radial_59_10" cx="0" cy="0" r="1" gradientUnits="userSpaceOnUse" gradientTransform="translate(12.8571 41.4286) rotate(-65.1363) scale(32.2774)">
<stop stop-color="#E0E8B7"/>
<stop offset="0.444662" stop-color="#FB8A2E"/>
<stop offset="0.71474" stop-color="#E2425C"/>
<stop offset="1" stop-color="#E2425C" stop-opacity="0"/>
</radialGradient>
<radialGradient id="paint2_radial_59_10" cx="0" cy="0" r="1" gradientUnits="userSpaceOnUse" gradientTransform="translate(-2.14286 1.42857) rotate(-8.1301) scale(55.5584 11.8834)">
<stop offset="0.156701" stop-color="#406ADC"/>
<stop offset="0.467799" stop-color="#6A45BE"/>
<stop offset="1" stop-color="#6A45BE" stop-opacity="0"/>
</radialGradient>
</defs>
</svg>
