<svg width="150" height="42" viewBox="0 0 150 42" fill="none" xmlns="http://www.w3.org/2000/svg">
<g filter="url(#filter0_i_134_236)">
<path d="M5.89888 35.8537V16.3758L13.8774 5.12195H107.471V35.8537H5.89888Z" fill="#FFCC00"/>
<path d="M144.944 5.12195V24.5998L135.738 35.8537H113.71V5.12195H144.944Z" fill="#FFCC00"/>
<path fill-rule="evenodd" clip-rule="evenodd" d="M0 42V15.3803L10.9244 0H150V26.6197L139.076 42H0ZM144.944 24.5998V5.12195H113.71V35.8537H135.738L144.944 24.5998ZM5.89888 16.3758V35.8537H107.471V5.12195H13.8774L5.89888 16.3758Z" fill="#9B0300"/>
</g>
<path d="M24.8651 26.192V24.752H23.4091V21.68H25.0251V24.592H29.2171V17.52H24.8651V15.904H29.3771V17.36H30.8491V24.752H29.3771V26.192H24.8651ZM35.5201 26.192V24.752H34.0641V17.36H35.5201V15.904H40.0321V17.36H41.5041V24.752H40.0321V26.192H35.5201ZM35.6801 24.592H39.8721V17.52H35.6801V24.592ZM44.7191 26.192V24.592H46.1751V17.52H44.7191V15.904H49.2471V17.52H47.7751V24.592H49.2471V26.192H44.7191ZM52.4678 26.192V15.904H54.0838V17.36H55.5238V18.8H56.9958V23.136H58.2758V15.904H59.9078V26.192H58.2758V24.752H56.8358V23.296H55.3638V18.96H54.0838V26.192H52.4678ZM63.1228 26V24.384H68.2748V26H63.1228ZM72.9369 26.192V24.752H71.4809V15.904H73.0969V24.592H77.2889V15.904H78.9209V24.752H77.4489V26.192H72.9369ZM83.5919 26.192V24.752H82.1359V23.136H83.7519V24.592H87.9439V21.84H83.5919V20.4H82.1359V17.36H83.5919V15.904H88.1039V17.36H89.5759V18.96H87.9439V17.52H83.7519V20.256H88.1039V21.68H89.5759V24.752H88.1039V26.192H83.5919Z" fill="#070603"/>
<path d="M136.09 15.4669C134.273 14.2208 131.398 14.0095 131.275 14.0019C131.084 13.9882 130.902 14.0794 130.824 14.2299C130.816 14.239 130.754 14.3621 130.685 14.5536C131.886 14.7268 133.363 15.0748 134.699 15.7815C134.913 15.894 134.979 16.1341 134.847 16.3164C134.759 16.4365 134.611 16.5018 134.458 16.5018C134.376 16.5018 134.292 16.4821 134.217 16.4426C131.92 15.2283 129.053 15.1675 128.5 15.1675C127.947 15.1675 125.078 15.2283 122.783 16.4426C122.569 16.5565 122.287 16.5003 122.155 16.318C122.021 16.1341 122.087 15.8955 122.301 15.7815C123.637 15.0763 125.114 14.7268 126.315 14.5551C126.246 14.3621 126.184 14.2405 126.178 14.2299C126.098 14.0794 125.918 13.9852 125.725 14.0019C125.602 14.0095 122.727 14.2208 120.885 15.4836C119.924 16.242 118 20.6734 118 24.5046C118 24.573 118.021 24.6384 118.061 24.6976C119.387 26.6854 123.009 27.2052 123.835 27.228C123.838 27.228 123.844 27.228 123.849 27.228C123.995 27.228 124.133 27.1687 124.218 27.0684L125.053 26.0897C122.801 25.5943 121.65 24.7524 121.584 24.7022C121.395 24.5609 121.378 24.3147 121.545 24.1536C121.711 23.9925 122 23.9773 122.189 24.1186C122.216 24.1399 124.334 25.6718 128.5 25.6718C132.673 25.6718 134.791 24.1338 134.813 24.1186C135.002 23.9788 135.289 23.9925 135.457 24.1551C135.622 24.3162 135.605 24.5609 135.416 24.7022C135.35 24.7524 134.199 25.5943 131.947 26.0897L132.782 27.0684C132.867 27.1687 133.005 27.228 133.151 27.228C133.156 27.228 133.162 27.228 133.165 27.228C133.991 27.2052 137.613 26.6854 138.939 24.6976C138.979 24.6384 139 24.573 139 24.5046C139 20.6734 137.076 16.242 136.09 15.4669ZM125.533 22.9485C124.65 22.9485 123.935 22.2524 123.935 21.3923C123.935 20.5321 124.65 19.8361 125.533 19.8361C126.415 19.8361 127.13 20.5321 127.13 21.3923C127.13 22.2524 126.415 22.9485 125.533 22.9485ZM131.467 22.9485C130.585 22.9485 129.87 22.2524 129.87 21.3923C129.87 20.5321 130.585 19.8361 131.467 19.8361C132.35 19.8361 133.065 20.5321 133.065 21.3923C133.065 22.2524 132.35 22.9485 131.467 22.9485Z" fill="#070603"/>
<defs>
<filter id="filter0_i_134_236" x="0" y="0" width="151" height="47" filterUnits="userSpaceOnUse" color-interpolation-filters="sRGB">
<feFlood flood-opacity="0" result="BackgroundImageFix"/>
<feBlend mode="normal" in="SourceGraphic" in2="BackgroundImageFix" result="shape"/>
<feColorMatrix in="SourceAlpha" type="matrix" values="0 0 0 0 0 0 0 0 0 0 0 0 0 0 0 0 0 0 127 0" result="hardAlpha"/>
<feOffset dx="1" dy="5"/>
<feGaussianBlur stdDeviation="4"/>
<feComposite in2="hardAlpha" operator="arithmetic" k2="-1" k3="1"/>
<feColorMatrix type="matrix" values="0 0 0 0 0.94902 0 0 0 0 0.929412 0 0 0 0 0.921569 0 0 0 0.35 0"/>
<feBlend mode="normal" in2="shape" result="effect1_innerShadow_134_236"/>
</filter>
</defs>
</svg>
